<svg width="452" height="80" viewBox="0 0 452 80" fill="none" xmlns="http://www.w3.org/2000/svg">
<path fill-rule="evenodd" clip-rule="evenodd" d="M197.306 19.48V25.96V35.44H171.574V25.96C171.574 24.2 172.213 22.68 173.489 21.4C174.766 20.12 176.282 19.48 178.037 19.48H190.843H197.306ZM164.154 18.04C162.718 20.44 162 23.08 162 25.96V70H171.574V45.28H197.306V70H207V25.96V10H190.843H178.037C175.165 10 172.492 10.72 170.019 12.16C167.545 13.6 165.59 15.56 164.154 18.04ZM266.933 67.84C269.417 69.28 272.101 70 274.986 70H284V60.4H275.106C273.343 60.4 271.821 59.8 270.538 58.6C269.337 57.32 268.696 55.8 268.615 54.04V34H280.755V24.52H268.615V10H259V54.04C259 56.92 259.721 59.6 261.163 62.08C262.606 64.48 264.529 66.4 266.933 67.84ZM315.382 36.4286C314.172 35.1587 312.679 34.5238 310.904 34.5238H305.096C303.321 34.5238 301.788 35.1587 300.497 36.4286C299.287 37.6984 298.682 39.2064 298.682 40.9524V54.1667C298.682 55.9127 299.287 57.4206 300.497 58.6905C301.788 59.881 303.321 60.4762 305.096 60.4762H310.904C312.679 60.4762 314.172 59.881 315.382 58.6905C316.673 57.4206 317.359 55.9127 317.439 54.1667L317.318 40.9524C317.318 39.127 316.673 37.619 315.382 36.4286ZM291.178 62.1429C289.726 59.6825 289 57.0238 289 54.1667V40.9524C289 38.0952 289.726 35.4365 291.178 32.9762C292.631 30.5159 294.567 28.5714 296.987 27.1429C299.488 25.7143 302.191 25 305.096 25H310.904C313.809 25 316.471 25.7143 318.892 27.1429C321.393 28.5714 323.369 30.5159 324.822 32.9762C326.274 35.4365 327 38.0952 327 40.9524V54.1667C327 57.0238 326.274 59.6825 324.822 62.1429C323.45 64.5238 321.514 66.4286 319.013 67.8571C316.592 69.2857 313.93 70 311.025 70H305.217C302.312 70 299.609 69.2857 297.108 67.8571C294.607 66.4286 292.631 64.5238 291.178 62.1429ZM251.879 25L252 70H230.217C227.312 70 224.609 69.3254 222.108 67.9762C219.607 66.5476 217.631 64.6429 216.178 62.2619C214.726 59.8016 214 57.1429 214 54.2857V25H223.682V54.2857C223.682 56.0317 224.287 57.5397 225.497 58.8095C226.788 60 228.321 60.5952 230.096 60.5952H242.318V25H251.879ZM427.886 19.72C429.637 19.72 431.149 20.36 432.422 21.64C433.695 22.84 434.332 24.32 434.332 26.08V53.92C434.411 55.68 433.814 57.2 432.541 58.48C431.268 59.76 429.756 60.4 428.005 60.4H414.995C413.244 60.4 411.732 59.76 410.459 58.48C409.265 57.2 408.629 55.68 408.549 53.92L408.668 26.08C408.668 24.32 409.265 22.84 410.459 21.64C411.732 20.36 413.244 19.72 414.995 19.72H427.886ZM399 53.92C399 56.8 399.716 59.48 401.149 61.96C402.581 64.44 404.53 66.4 406.997 67.84C409.464 69.28 412.13 70 414.995 70H427.886C430.751 70 433.416 69.28 435.883 67.84C436.716 67.354 437.49 66.8087 438.204 66.2042L442 70H452L442.488 60.4877C443.416 58.4281 443.881 56.2389 443.881 53.92L444 26.08C444 23.2 443.244 20.52 441.732 18.04C440.3 15.56 438.35 13.6 435.883 12.16C433.496 10.72 430.87 10 428.005 10H414.995C412.13 10 409.464 10.72 406.997 12.16C404.53 13.6 402.581 15.56 401.149 18.04C399.716 20.52 399 23.2 399 26.08V53.92ZM392 10H350.071C347.171 10 344.513 10.72 342.096 12.16C339.599 13.6 337.625 15.56 336.175 18.04C334.725 20.44 334 23.08 334 25.96L334.121 70H343.788L343.667 25.96C343.747 24.2 344.432 22.72 345.721 21.52C346.929 20.24 348.419 19.6 350.192 19.6H358.167V70H367.833V19.6H382.333V70H392V10Z" fill="#0D1117"/>
<path fill-rule="evenodd" clip-rule="evenodd" d="M110.718 40H95.697C94.2493 40 92.9131 40.7722 92.1973 42.0225L71.6144 77.9775C70.8987 79.2278 69.5624 80 68.1147 80H54.3521C52.1286 80 50.326 78.2091 50.326 76L50.326 46.1731L50.326 46.15C50.326 43.3886 48.0728 41.15 45.2934 41.15C43.4975 41.15 41.9214 42.0845 41.0307 43.4908L21.2884 77.9775C20.5726 79.2278 19.2364 80 17.7887 80H0V70.5L39.1041 2.02609C39.8192 0.773805 41.1566 0 42.6058 0H56.3656C58.5892 0 60.3917 1.79086 60.3917 4V40H65.5856C67.0401 40 68.3816 39.2206 69.0947 37.961L89.4328 2.03895C90.1459 0.779445 91.4873 0 92.9418 0H106.692C108.915 0 110.718 1.79086 110.718 4V40ZM110.718 40L117.009 53.4375L121.624 63.2973C122.181 64.4862 122.116 65.8705 121.45 67.0026L114.97 78.0183C114.248 79.2456 112.925 80 111.494 80H87.6344L110.718 40Z" fill="url(#paint0_linear_1_166)"/>
<defs>
<linearGradient id="paint0_linear_1_166" x1="48.5" y1="-8" x2="76.4519" y2="95.5774" gradientUnits="userSpaceOnUse">
<stop stop-color="#3700D4"/>
<stop offset="1" stop-color="#C482F1"/>
</linearGradient>
</defs>
</svg>

